<region>
sample=$SAMPLE_DIR/crash_15_sabi_bow_a_01.wav
hivel=25
seq_length=2

<region>
sample=$SAMPLE_DIR/crash_15_sabi_bow_b_01.wav
hivel=25
seq_length=2
seq_position=2

<region>
sample=$SAMPLE_DIR/crash_15_sabi_bow_a_02.wav
lovel=26
hivel=50
seq_length=2

<region>
sample=$SAMPLE_DIR/crash_15_sabi_bow_b_02.wav
lovel=26
hivel=50
seq_length=2
seq_position=2

<region>
sample=$SAMPLE_DIR/crash_15_sabi_bow_a_03.wav
lovel=51
hivel=76
seq_length=2

<region>
sample=$SAMPLE_DIR/crash_15_sabi_bow_b_03.wav
lovel=51
hivel=76
seq_length=2
seq_position=2

<region>
sample=$SAMPLE_DIR/crash_15_sabi_bow_a_04.wav
lovel=77
hivel=101
seq_length=2

<region>
sample=$SAMPLE_DIR/crash_15_sabi_bow_b_04.wav
lovel=77
hivel=101
seq_length=2
seq_position=2

<region>
sample=$SAMPLE_DIR/crash_15_sabi_bow_a_05.wav
lovel=102
seq_length=2

<region>
sample=$SAMPLE_DIR/crash_15_sabi_bow_b_05.wav
lovel=102
seq_length=2
seq_position=2

